<svg xmlns="http://www.w3.org/2000/svg" version="1.1" xmlns:xlink="http://www.w3.org/1999/xlink" xmlns:svgjs="http://svgjs.dev/svgjs" width="1000" height="207" viewBox="0 0 1000 207"><g transform="matrix(1,0,0,1,-0.6060606060606233,-0.2741844903413835)"><svg viewBox="0 0 396 82" data-background-color="#ffffff" preserveAspectRatio="xMidYMid meet" height="207" width="1000" xmlns="http://www.w3.org/2000/svg" xmlns:xlink="http://www.w3.org/1999/xlink"><defs></defs><g id="tight-bounds" transform="matrix(1,0,0,1,0.2400000000000091,0.10861414593233576)"><svg viewBox="0 0 395.52 81.7827717081353" height="81.7827717081353" width="395.52"><g><svg viewBox="0 0 395.52 81.7827717081353" height="81.7827717081353" width="395.52"><g><svg viewBox="0 0 395.52 81.7827717081353" height="81.7827717081353" width="395.52"><g><svg viewBox="0 0 395.52 81.7827717081353" height="81.7827717081353" width="395.52"><g><svg viewBox="0 0 395.52 81.7827717081353" height="81.7827717081353" width="395.52"><rect width="395.52" height="81.7827717081353" x="0" y="0" opacity="1" fill="#233565" data-fill-palette-color="tertiary"></rect><g transform="matrix(1,0,0,1,23.607599999999998,23.607599999999994)"><svg width="348.3048" viewBox="2.3499999046325684 -34.900001525878906 357.67999267578125 35.5" height="34.56757170813531" data-palette-color="#ffffff"><path d="M16.55 0.6Q10.35 0.6 6.35-1.98 2.35-4.55 2.35-9.8L2.35-9.8 2.4-10.85 7.9-10.85Q7.8-10.15 7.8-9.85L7.8-9.85Q7.8-7.05 10.15-5.58 12.5-4.1 16.5-4.1L16.5-4.1Q20.9-4.1 23.15-5.4 25.4-6.7 25.4-9.15L25.4-9.15Q25.4-10.9 24.18-12.03 22.95-13.15 21.08-13.83 19.2-14.5 16-15.35L16-15.35Q11.95-16.4 9.38-17.43 6.8-18.45 5-20.43 3.2-22.4 3.2-25.6L3.2-25.6Q3.2-30.15 6.95-32.52 10.7-34.9 16.7-34.9L16.7-34.9Q22.6-34.9 26.28-32.45 29.95-30 29.95-25.1L29.95-25.1 29.95-24.5 24.55-24.5 24.55-25.15Q24.55-27.55 22.4-28.88 20.25-30.2 16.8-30.2L16.8-30.2Q13.1-30.2 10.93-29.1 8.75-28 8.75-25.9L8.75-25.9Q8.75-24.35 9.95-23.33 11.15-22.3 12.95-21.65 14.75-21 17.85-20.2L17.85-20.2Q22.05-19.1 24.63-18.1 27.2-17.1 29.05-15.13 30.9-13.15 30.9-9.95L30.9-9.95Q30.9-4.45 27.05-1.93 23.2 0.6 16.55 0.6L16.55 0.6ZM51.35 0.6Q44.55 0.6 40.82-2.7 37.1-6 37.1-12.7L37.1-12.7 37.1-34.3 42.65-34.3 42.65-12.6Q42.65-8.45 44.92-6.28 47.2-4.1 51.35-4.1L51.35-4.1Q55.55-4.1 57.85-6.28 60.15-8.45 60.15-12.6L60.15-12.6 60.15-34.3 65.7-34.3 65.7-12.7Q65.7-6 61.97-2.7 58.25 0.6 51.35 0.6L51.35 0.6ZM73.2 0L73.2-34.3 89.8-34.3Q95.15-34.3 97.95-31.43 100.75-28.55 100.75-23.6L100.75-23.6Q100.75-18.65 97.82-15.7 94.9-12.75 89.65-12.75L89.65-12.75 78.75-12.75 78.75 0 73.2 0ZM78.75-17.5L89.45-17.5Q92.1-17.5 93.62-19.13 95.15-20.75 95.15-23.6L95.15-23.6Q95.15-26.45 93.7-28 92.25-29.55 89.45-29.55L89.45-29.55 78.75-29.55 78.75-17.5ZM106.54 0L106.54-34.3 133.14-34.3 133.14-29.55 112.09-29.55 112.09-19.9 130.94-19.9 130.94-15.15 112.09-15.15 112.09-4.75 133.44-4.75 133.44 0 106.54 0ZM139.89 0L139.89-34.3 157.84-34.3Q163.19-34.3 165.99-31.6 168.79-28.9 168.79-24.25L168.79-24.25Q168.79-20.7 167.19-18.2 165.59-15.7 162.59-14.55L162.59-14.55 170.19 0 164.14 0 157.09-13.75 145.44-13.75 145.44 0 139.89 0ZM145.44-18.45L157.49-18.45Q160.14-18.45 161.67-19.98 163.19-21.5 163.19-24.2L163.19-24.2Q163.19-26.75 161.74-28.15 160.29-29.55 157.49-29.55L157.49-29.55 145.44-29.55 145.44-18.45ZM191.19 0.6Q182.99 0.6 178.74-3.8 174.49-8.2 174.49-17.15L174.49-17.15Q174.49-26.05 178.74-30.48 182.99-34.9 191.19-34.9L191.19-34.9Q197.89-34.9 202.01-31.55 206.14-28.2 206.14-21.8L206.14-21.8 200.49-21.8Q200.49-25.85 197.99-28.03 195.49-30.2 191.24-30.2L191.24-30.2Q185.59-30.2 182.91-27.13 180.24-24.05 180.19-17.45L180.19-17.45 180.19-16.9Q180.19-10.25 182.89-7.18 185.59-4.1 191.24-4.1L191.24-4.1Q195.64-4.1 198.16-6.23 200.69-8.35 200.69-12.4L200.69-12.4 206.14-12.4Q206.14-5.95 202.04-2.68 197.94 0.6 191.19 0.6L191.19 0.6ZM227.79 0.6Q219.59 0.6 215.09-3.88 210.59-8.35 210.59-17.15L210.59-17.15Q210.59-25.95 215.09-30.43 219.59-34.9 227.79-34.9L227.79-34.9Q236.04-34.9 240.54-30.43 245.04-25.95 245.04-17.15L245.04-17.15Q245.04-8.35 240.54-3.88 236.04 0.6 227.79 0.6L227.79 0.6ZM227.79-4.1Q239.34-4.1 239.34-16.8L239.34-16.8 239.34-17.4Q239.29-30.2 227.79-30.2L227.79-30.2Q216.34-30.2 216.28-17.4L216.28-17.4 216.28-16.8Q216.28-4.1 227.79-4.1L227.79-4.1ZM250.98 0L250.98-34.3 268.93-34.3Q274.28-34.3 277.08-31.6 279.88-28.9 279.88-24.25L279.88-24.25Q279.88-20.7 278.28-18.2 276.68-15.7 273.68-14.55L273.68-14.55 281.28 0 275.23 0 268.18-13.75 256.53-13.75 256.53 0 250.98 0ZM256.53-18.45L268.58-18.45Q271.23-18.45 272.76-19.98 274.28-21.5 274.28-24.2L274.28-24.2Q274.28-26.75 272.83-28.15 271.38-29.55 268.58-29.55L268.58-29.55 256.53-29.55 256.53-18.45ZM287.08 0L287.08-34.3 313.68-34.3 313.68-29.55 292.63-29.55 292.63-19.9 311.48-19.9 311.48-15.15 292.63-15.15 292.63-4.75 313.98-4.75 313.98 0 287.08 0ZM320.88 0L320.88-34.3 326.43-34.3 326.43 0 320.88 0ZM343.08 0L343.08-29.5 331.68-29.5 331.68-34.3 360.03-34.3 360.03-29.5 348.63-29.5 348.63 0 343.08 0Z" opacity="1" transform="matrix(1,0,0,1,0,0)" fill="#ffffff" class="undefined-text-0" data-fill-palette-color="quaternary" id="text-0"></path></svg></g></svg></g></svg></g></svg></g></svg></g></svg><rect width="395.52" height="81.7827717081353" fill="none" stroke="none" visibility="hidden"></rect></g></svg></g></svg>